<?xml version="1.0" encoding="UTF-8"?>
<svg version="1.1" xmlns="http://www.w3.org/2000/svg" width="500" height="500">
<path d="M0 0 C1.66865496 0.00186804 3.33731048 0.00329012 5.00596619 0.00428772 C9.37065174 0.00808251 13.73530333 0.01788643 18.09997559 0.0289917 C22.5646926 0.03927156 27.02941516 0.04379935 31.49414062 0.04882812 C40.23439048 0.05951178 48.97461287 0.07655117 57.71484375 0.09765625 C57.71484375 4.38765625 57.71484375 8.67765625 57.71484375 13.09765625 C56.72592133 13.1057431 55.7369989 13.11382996 54.71810913 13.12216187 C45.38982924 13.1997102 36.06169363 13.28747142 26.73360252 13.38518333 C21.93815366 13.4350888 17.14272621 13.48141936 12.34716797 13.51953125 C7.71755542 13.55645666 3.08812456 13.60283634 -1.54133224 13.65571976 C-3.30588971 13.67422516 -5.07048606 13.6893473 -6.83510208 13.70100021 C-9.31034118 13.71792875 -11.78516767 13.74697936 -14.26025391 13.77880859 C-14.98674133 13.78096878 -15.71322876 13.78312897 -16.46173096 13.78535461 C-20.79165002 13.8562944 -24.22771698 14.65080731 -28.28515625 16.09765625 C-29.60515625 16.09765625 -30.92515625 16.09765625 -32.28515625 16.09765625 C-32.28515625 16.75765625 -32.28515625 17.41765625 -32.28515625 18.09765625 C-33.31640625 18.61328125 -34.34765625 19.12890625 -35.41015625 19.66015625 C-42.94106936 23.99613653 -47.51673076 31.3502734 -50.03515625 39.53515625 C-51.02557686 49.68696746 -49.79487338 58.90801212 -43.28515625 67.09765625 C-42.62515625 67.42765625 -41.96515625 67.75765625 -41.28515625 68.09765625 C-41.28515625 68.75765625 -41.28515625 69.41765625 -41.28515625 70.09765625 C-39.95303281 70.76673724 -38.61941038 71.43283436 -37.28515625 72.09765625 C-36.29973343 72.61930359 -36.29973343 72.61930359 -35.29440308 73.15148926 C-26.12426395 77.25876068 -16.47018445 76.63653828 -6.6294899 76.58351135 C-3.29786608 76.56610531 0.03290095 76.57383587 3.36453247 76.58776855 C11.63642069 76.61727201 19.90814004 76.60426231 28.18005371 76.59259033 C35.1825789 76.58435094 42.18472675 76.59246817 49.18719864 76.62171936 C52.44925448 76.62875468 55.71062412 76.61221116 58.97262573 76.59460449 C73.7691673 76.59595632 86.49305453 77.29230061 97.71484375 88.09765625 C106.86962035 97.34183497 110.12307511 106.76060255 110.08276367 119.60327148 C109.93611481 126.02593542 108.61659872 131.3324533 105.71484375 137.09765625 C105.20630859 138.16886719 105.20630859 138.16886719 104.6875 139.26171875 C99.59128779 148.65615977 89.66989335 154.85909697 79.71484375 158.09765625 C76.37418524 158.69691762 73.10629458 159.01673226 69.71484375 159.09765625 C69.71484375 163.18625775 71.80182907 165.32365161 74.15234375 168.47265625 C75.08159087 169.74416236 76.00995899 171.01631128 76.9375 172.2890625 C77.40687988 172.9298877 77.87625977 173.57071289 78.35986328 174.23095703 C80.31602644 176.92588018 82.20378334 179.66585184 84.08984375 182.41015625 C86.67631322 186.17144937 89.28788706 189.90955363 91.9453125 193.62109375 C92.49719238 194.39412842 93.04907227 195.16716309 93.61767578 195.96362305 C94.70982108 197.49130908 95.80575409 199.01629553 96.90576172 200.53833008 C97.40092285 201.2320874 97.89608398 201.92584473 98.40625 202.640625 C98.85170166 203.2596167 99.29715332 203.8786084 99.75610352 204.51635742 C100.71484375 206.09765625 100.71484375 206.09765625 100.71484375 208.09765625 C101.37484375 208.09765625 102.03484375 208.09765625 102.71484375 208.09765625 C105.26926801 211.50355526 106.67379472 213.93346013 107.71484375 218.09765625 C102.76484375 218.09765625 97.81484375 218.09765625 92.71484375 218.09765625 C92.71484375 217.43765625 92.71484375 216.77765625 92.71484375 216.09765625 C92.05484375 216.09765625 91.39484375 216.09765625 90.71484375 216.09765625 C89.47654017 214.44051469 88.32636147 212.71737464 87.21484375 210.97265625 C84.21015926 206.34923183 81.1308042 201.81719548 77.90234375 197.34765625 C73.94966916 191.85547914 70.08302369 186.3111141 66.26708984 180.72314453 C63.36123923 176.47393682 60.42247196 172.24969736 57.4609375 168.0390625 C56.7282666 166.99484131 55.9955957 165.95062012 55.24072266 164.87475586 C53.77929083 162.79351316 52.31418978 160.71484155 50.84521484 158.63891602 C50.1795752 157.68944092 49.51393555 156.73996582 48.828125 155.76171875 C48.22782471 154.9104541 47.62752441 154.05918945 47.0090332 153.18212891 C45.71484375 151.09765625 45.71484375 151.09765625 45.71484375 149.09765625 C61.96754645 146.03583193 61.96754645 146.03583193 69.15234375 145.66015625 C76.39381906 145.18203959 82.32662552 142.3353214 88.71484375 139.09765625 C88.71484375 138.43765625 88.71484375 137.77765625 88.71484375 137.09765625 C89.37484375 137.09765625 90.03484375 137.09765625 90.71484375 137.09765625 C91.38254742 135.43140476 92.04896892 133.76463943 92.71484375 132.09765625 C93.24464844 130.78667969 93.24464844 130.78667969 93.78515625 129.44921875 C97.22589128 120.55428153 97.47181869 114.69049741 93.9765625 105.75 C90.79691143 99.06584186 86.32203917 95.2273804 79.71484375 92.09765625 C74.74276846 90.42824385 70.48541878 89.85889629 65.25 89.90234375 C64.57182724 89.90517365 63.89365448 89.90800354 63.19493103 89.91091919 C61.05554609 89.92200209 58.91659945 89.94708265 56.77734375 89.97265625 C55.31576131 89.98270149 53.85417222 89.99182462 52.39257812 90 C48.83319396 90.021902 45.27406172 90.05634759 41.71484375 90.09765625 C42.33875 91.16242188 42.96265625 92.2271875 43.60546875 93.32421875 C48.58968929 102.06638335 50.12475765 110.20692707 47.65234375 120.03515625 C45.71499881 125.84719106 42.44162679 130.29365225 38.71484375 135.09765625 C37.77052502 136.3448187 36.82653589 137.59223075 35.8828125 138.83984375 C34.89089345 140.13531862 33.89740738 141.42959519 32.90234375 142.72265625 C32.42216797 143.35139648 31.94199219 143.98013672 31.44726562 144.62792969 C30.25069969 146.1563093 28.98795099 147.63242171 27.71484375 149.09765625 C27.05484375 149.09765625 26.39484375 149.09765625 25.71484375 149.09765625 C25.48796875 149.61328125 25.26109375 150.12890625 25.02734375 150.66015625 C23.23266757 153.9931263 21.2151936 157.24469296 18.71484375 160.09765625 C18.05484375 160.09765625 17.39484375 160.09765625 16.71484375 160.09765625 C16.44607422 160.6795874 16.17730469 161.26151855 15.90039062 161.86108398 C14.70202936 164.12183101 13.37488147 165.9140229 11.74609375 167.8828125 C11.17503906 168.57826172 10.60398437 169.27371094 10.015625 169.99023438 C9.42136719 170.70630859 8.82710938 171.42238281 8.21484375 172.16015625 C7.03660496 173.58758871 5.85947627 175.01593838 4.68359375 176.4453125 C3.90145508 177.3890271 3.90145508 177.3890271 3.10351562 178.35180664 C1.89347574 179.87307866 0.79308521 181.48029407 -0.28515625 183.09765625 C-0.94515625 183.09765625 -1.60515625 183.09765625 -2.28515625 183.09765625 C-2.67380859 183.95037109 -2.67380859 183.95037109 -3.0703125 184.8203125 C-4.40191511 187.31653218 -5.94023479 189.3377011 -7.72265625 191.53515625 C-8.77453125 192.83259766 -8.77453125 192.83259766 -9.84765625 194.15625 C-13.09183389 198.07109898 -16.37726607 201.95037681 -19.69116211 205.80639648 C-22.25657936 208.76669566 -22.25657936 208.76669566 -24.28515625 212.09765625 C-24.94515625 212.09765625 -25.60515625 212.09765625 -26.28515625 212.09765625 C-26.74921875 213.02578125 -26.74921875 213.02578125 -27.22265625 213.97265625 C-27.91015625 215.34765625 -28.59765625 216.72265625 -29.28515625 218.09765625 C-34.56515625 218.09765625 -39.84515625 218.09765625 -45.28515625 218.09765625 C-43.49480447 214.51695269 -41.76269728 212.07693378 -39.22265625 209.03515625 C-38.02769531 207.59462891 -38.02769531 207.59462891 -36.80859375 206.125 C-35.97585937 205.12597656 -35.143125 204.12695312 -34.28515625 203.09765625 C-32.63680445 201.0997314 -30.99086246 199.09981527 -29.34765625 197.09765625 C-28.25130859 195.76734375 -28.25130859 195.76734375 -27.1328125 194.41015625 C-25.18370183 192.03865604 -25.18370183 192.03865604 -23.28515625 189.09765625 C-22.62515625 189.09765625 -21.96515625 189.09765625 -21.28515625 189.09765625 C-21.03636719 188.36417969 -20.78757813 187.63070312 -20.53125 186.875 C-19.16831063 183.83722604 -17.64520556 182.05741836 -15.34765625 179.66015625 C-11.59516724 175.61205315 -8.10818879 171.45056792 -4.72265625 167.09765625 C-4.02970459 166.20904907 -4.02970459 166.20904907 -3.32275391 165.30249023 C-1.16812446 162.53361242 0.97725588 159.75771327 3.12109375 156.98046875 C3.83265625 156.07039062 4.54421875 155.1603125 5.27734375 154.22265625 C5.89738281 153.42085937 6.51742187 152.6190625 7.15625 151.79296875 C7.67058594 151.23351562 8.18492187 150.6740625 8.71484375 150.09765625 C9.37484375 150.09765625 10.03484375 150.09765625 10.71484375 150.09765625 C11.02421875 149.47890625 11.33359375 148.86015625 11.65234375 148.22265625 C12.33984375 146.84765625 13.02734375 145.47265625 13.71484375 144.09765625 C14.37484375 144.09765625 15.03484375 144.09765625 15.71484375 144.09765625 C16.37484375 142.44765625 17.03484375 140.79765625 17.71484375 139.09765625 C18.37484375 139.09765625 19.03484375 139.09765625 19.71484375 139.09765625 C19.71484375 138.43765625 19.71484375 137.77765625 19.71484375 137.09765625 C20.37484375 137.09765625 21.03484375 137.09765625 21.71484375 137.09765625 C21.96363281 136.37320313 22.21242188 135.64875 22.46875 134.90234375 C23.83023007 131.83794659 25.47373651 129.7623362 27.65234375 127.22265625 C32.5448925 121.21130325 35.38355901 116.32493002 35.05859375 108.36328125 C34.06763105 101.83193621 30.61772909 97.50342154 25.69140625 93.32421875 C19.61858874 89.55571144 13.41019166 89.81756644 6.5078125 89.82421875 C4.28970851 89.80392771 2.07160959 89.78307689 -0.14648438 89.76171875 C-3.6221953 89.73915079 -7.09770556 89.72265617 -10.57348633 89.71679688 C-13.94258359 89.70723305 -17.31079125 89.67340854 -20.6796875 89.63671875 C-21.70810257 89.64176422 -22.73651764 89.64680969 -23.7960968 89.65200806 C-30.51387657 89.56118205 -35.38183168 88.27394078 -41.28515625 85.09765625 C-42.46078125 84.52015625 -43.63640625 83.94265625 -44.84765625 83.34765625 C-45.65203125 82.93515625 -46.45640625 82.52265625 -47.28515625 82.09765625 C-47.28515625 81.43765625 -47.28515625 80.77765625 -47.28515625 80.09765625 C-47.90390625 79.85015625 -48.52265625 79.60265625 -49.16015625 79.34765625 C-51.63584312 77.89136986 -52.23640627 76.71953119 -53.28515625 74.09765625 C-53.94515625 74.09765625 -54.60515625 74.09765625 -55.28515625 74.09765625 C-62.83403725 64.3470183 -65.41447186 52.25124325 -64.28515625 40.09765625 C-62.75162389 32.5975232 -58.8010419 25.82221424 -55.28515625 19.09765625 C-54.62515625 19.09765625 -53.96515625 19.09765625 -53.28515625 19.09765625 C-53.05054688 18.52015625 -52.8159375 17.94265625 -52.57421875 17.34765625 C-48.07718875 9.49829479 -38.11641744 4.76663739 -29.84765625 1.91015625 C-19.99261203 -0.33748542 -10.04204855 -0.0331756 0 0 Z " fill="#DEDEDE" transform="translate(226.28515625,136.90234375)"/>
<path d="M0 0 C0.6875 1.8125 0.6875 1.8125 1 4 C0.01 4.99 -0.98 5.98 -2 7 C1.96 7 5.92 7 10 7 C10 7.66 10 8.32 10 9 C4.72 9 -0.56 9 -6 9 C-4.25618453 5.51236907 -2.47193291 2.96631949 0 0 Z " fill="#9F9F9F" transform="translate(187,346)"/>
<path d="M0 0 C0 0.99 0 1.98 0 3 C-0.66 3.66 -1.32 4.32 -2 5 C-2.433125 6.2065625 -2.433125 6.2065625 -2.875 7.4375 C-4.14106224 10.32130844 -5.37684406 11.3386679 -8 13 C-8.66 12.67 -9.32 12.34 -10 12 C-9.34 11.01 -8.68 10.02 -8 9 C-7.34 9 -6.68 9 -6 9 C-5.7525 8.2575 -5.505 7.515 -5.25 6.75 C-3.90852699 3.79875938 -2.39094474 2.15185026 0 0 Z " fill="#929292" transform="translate(211,317)"/>
<path d="M0 0 C1.98 0 3.96 0 6 0 C5.47731534 2.76276177 4.89130413 5.3260876 4 8 C0 2.25 0 2.25 0 0 Z " fill="#8E8E8E" transform="translate(272,286)"/>
</svg>
